Coordinates
version=1
nRows=8
nColumns=40
inDegrees=yes

Units are S.I. units (second, meters, Newtons, ...)
If the header above contains a line with 'inDegrees', this indicates whether rotational values are in degrees (yes) or radians (no).

endheader
time	pelvis_tilt	pelvis_list	pelvis_rotation	pelvis_tx	pelvis_ty	pelvis_tz	hip_flexion_r	hip_adduction_r	hip_rotation_r	knee_angle_r	knee_angle_r_beta	ankle_angle_r	subtalar_angle_r	mtp_angle_r	hip_flexion_l	hip_adduction_l	hip_rotation_l	knee_angle_l	knee_angle_l_beta	ankle_angle_l	subtalar_angle_l	mtp_angle_l	lumbar_extension	lumbar_bending	lumbar_rotation	arm_flex_r	arm_add_r	arm_rot_r	elbow_flex_r	pro_sup_r	wrist_flex_r	wrist_dev_r	arm_flex_l	arm_add_l	arm_rot_l	elbow_flex_l	pro_sup_l	wrist_flex_l	wrist_dev_l
      6.45500000	     89.40860862	     89.86149181	     89.40986456	      0.23127561	      0.94471507	      0.78681337	      9.19019730	    -33.66575839	    -31.54088222	      9.95782400	      0.17379682	     -2.88434044	      0.00000000	      0.00000000	      8.10231302	    -38.00400655	    -35.62795726	     19.18348565	      0.33481499	     -0.15364072	      0.00000000	      0.00000000	     -1.67135040	     -2.84559105	      8.50765365	     13.98745974	    -22.63204004	     85.71589591	     26.07022595	     77.86371470	      0.00000000	      0.00000000	     14.86483020	    -15.75296361	     62.98990186	     17.34628335	     83.38163002	      0.00000000	      0.00000000
      6.46000000	     89.43663117	     89.85866966	     89.43742993	      0.23094526	      0.94483379	      0.78668673	      9.40441427	    -33.86387108	    -31.97079267	     10.65110642	      0.18589688	     -2.46962919	      0.00000000	      0.00000000	      8.12952205	    -38.01357010	    -35.59201576	     19.19090902	      0.33494455	     -0.14185978	      0.00000000	      0.00000000	     -1.58951271	     -2.81500777	      8.38304468	     13.88972534	    -22.55288646	     85.83190898	     26.03532552	     76.12695216	      0.00000000	      0.00000000	     14.17445860	    -15.17861400	     58.55391595	     16.83660783	     84.11428825	      0.00000000	      0.00000000
      6.46500000	     89.41595633	     89.86021658	     89.41717589	      0.23073167	      0.94497910	      0.78660716	      9.43361805	    -33.86060172	    -31.88108422	     10.68073758	      0.18641404	     -2.46570664	      0.00000000	      0.00000000	      8.07633448	    -38.02324015	    -35.63672228	     19.18736217	      0.33488264	     -0.13799450	      0.00000000	      0.00000000	     -1.50676705	     -2.81581018	      8.46556565	     13.81159182	    -22.53521816	     85.85588962	     26.03699268	     76.12955125	      0.00000000	      0.00000000	     14.11397145	    -15.19247307	     58.55774423	     16.82727658	     84.12279459	      0.00000000	      0.00000000
      6.47000000	     89.39839553	     89.86109461	     89.39966376	      0.23053046	      0.94508085	      0.78652820	      9.45290730	    -33.85850070	    -31.81280714	     10.70630620	      0.18686029	     -2.45187243	      0.00000000	      0.00000000	      8.02785065	    -38.02889622	    -35.68839221	     19.18368318	      0.33481843	     -0.12871520	      0.00000000	      0.00000000	     -1.42462116	     -2.81734338	      8.53695428	     13.73969204	    -22.51641430	     85.87807833	     26.03445546	     76.13186535	      0.00000000	      0.00000000	     14.06235365	    -15.20342395	     58.56034737	     16.82197662	     84.13026347	      0.00000000	      0.00000000
      6.47500000	     89.39073326	     89.86064451	     89.39200577	      0.23033833	      0.94511059	      0.78643270	      9.45606371	    -33.86311925	    -31.76558997	     10.72858222	      0.18724908	     -2.41992833	      0.00000000	      0.00000000	      7.99322683	    -38.03303897	    -35.75240705	     19.17354317	      0.33464146	     -0.11115556	      0.00000000	      0.00000000	     -1.34185352	     -2.80904141	      8.58956184	     13.65892500	    -22.50458726	     85.90205794	     26.02090155	     76.13344200	      0.00000000	      0.00000000	     14.00910289	    -15.20917830	     58.56153450	     16.82197266	     84.14007751	      0.00000000	      0.00000000
      6.48000000	     89.36550535	     89.85988184	     89.36691090	      0.23026791	      0.94522601	      0.78634176	      9.48642609	    -33.85812606	    -31.72899076	     10.73832656	      0.18741915	     -2.39826999	      0.00000000	      0.00000000	      7.94348547	    -38.03994898	    -35.80506008	     19.17053484	      0.33458895	     -0.09439706	      0.00000000	      0.00000000	     -1.27901795	     -2.81094423	      8.64395804	     13.61980396	    -22.47796559	     85.91423296	     26.01834980	     76.13387680	      0.00000000	      0.00000000	     13.96961356	    -15.22092422	     58.56250844	     16.82256909	     84.14741729	      0.00000000	      0.00000000
      6.48500000	     89.35014422	     89.85969673	     89.35156282	      0.23021279	      0.94526282	      0.78625413	      9.50756759	    -33.85618870	    -31.69651783	     10.74797713	      0.18758759	     -2.37540322	      0.00000000	      0.00000000	      7.90413480	    -38.04306554	    -35.86196404	     19.16347477	      0.33446573	     -0.07368665	      0.00000000	      0.00000000	     -1.22686014	     -2.80991681	      8.68401248	     13.57758362	    -22.46128698	     85.92677786	     26.01176556	     76.13403820	      0.00000000	      0.00000000	     13.92724170	    -15.24238710	     58.56368605	     16.81202542	     84.15280165	      0.00000000	      0.00000000
      6.49000000	     89.33500723	     89.86037194	     89.33645651	      0.23024027	      0.94528063	      0.78618090	      9.52871119	    -33.85700565	    -31.67187415	     10.75224131	      0.18766201	     -2.35185324	      0.00000000	      0.00000000	      7.87022804	    -38.04266735	    -35.92542844	     19.15268839	      0.33427747	     -0.04931707	      0.00000000	      0.00000000	     -1.18450451	     -2.80543772	      8.70456418	     13.54937225	    -22.44570753	     85.93476195	     26.00660327	     76.13327055	      0.00000000	      0.00000000	     13.89499970	    -15.25401750	     58.56536706	     16.80754418	     84.15838286	      0.00000000	      0.00000000
